<?xml version="1.0" encoding="utf-8"?>
<svg viewBox="0.4891 4.1198 498.3989 393.5693" xmlns="http://www.w3.org/2000/svg">
  <g id="SVGRepo_iconCarrier" transform="matrix(4.410613059997559, 0, 0, 4.247188091278076, -32.59049606323242, -33.46357727050783)" style="">
    <path fill-rule="evenodd" clip-rule="evenodd" d="M 46.909 28.946 C 51.338 27.953 60.128 27.463 64.994 27.463 C 70.074 27.463 76.814 27.759 82.108 28.946 C 84.36 29.451 85.566 30.289 86.12 31.36 C 86.66 32.404 86.503 33.542 86.381 34.406 C 85.894 37.841 85.214 41.96 84.438 46.658 L 84.436 46.672 C 84.03 49.126 83.006 50.836 81.658 51.93 C 80.315 53.02 78.691 53.463 77.14 53.463 L 50.905 53.463 C 48.878 53.463 47.305 52.951 46.166 52.072 C 45.026 51.192 44.362 49.977 44.099 48.649 C 43.591 46.09 42.857 42.009 42.032 37.426 C 41.912 36.762 41.791 36.087 41.668 35.405 C 41.252 33.1 41.617 31.607 42.693 30.621 C 43.21 30.148 43.857 29.825 44.565 29.574 C 45.272 29.323 46.072 29.134 46.909 28.946 Z" style="--darkreader-inline-fill: #000000; shape-rendering: crispedges;" data-darkreader-inline-fill="" class="touchpad" id="touchpad_ps5" fill="white"/>
    <path fill-rule="evenodd" clip-rule="evenodd" d="M31.988 29.9758C36.326 29.4841 40.442 29.4094 42.9147 29.4923C43.1637 29.5007 43.3686 29.6911 43.3951 29.9389C43.4216 30.1867 43.2615 30.4161 43.0199 30.4769C42.5338 30.5992 42.187 31.1095 42.0026 31.97C41.8275 32.7869 41.8465 33.728 41.9219 34.3493C42.2525 36.0145 43.0998 40.5751 43.8822 45.691C44.6913 50.9821 42.5421 54.721 41.2925 55.9781L41.2915 55.9792C39.6225 57.6581 37.8917 59.3994 35.4656 62.8164C32.9957 66.295 29.4644 74.1247 26.2878 81.7599C23.9013 87.4961 21.7339 93.0748 20.3887 96.5371C19.9479 97.6717 19.5954 98.5791 19.3524 99.1902C19.3473 99.203 19.3417 99.2157 19.3355 99.228C19.3118 99.2757 19.2866 99.3289 19.2593 99.3863C19.1705 99.5735 19.0602 99.806 18.9117 100.041L22.0327 100.463C22.575 100.459 22.9875 100.354 23.3331 100.163C23.6886 99.9673 24.0089 99.6617 24.333 99.2073C24.8934 98.4214 25.4038 97.2877 26.1122 95.7142C26.2485 95.4114 26.3921 95.0923 26.5448 94.7563C27.7527 92.0989 28.99 88.9185 30.06 86.1678L30.1529 85.929C30.6971 84.5303 31.1965 83.2503 31.6214 82.2273C32.0394 81.2209 32.4045 80.4144 32.681 79.9971C33.3818 78.9395 34.4096 77.3999 36.1734 76.32C37.9474 75.2339 40.4088 74.6441 43.9269 75.3367H83.9965C86.8022 74.6423 89.2767 74.9817 91.3177 76.1469C93.3659 77.3163 94.93 79.2901 95.9617 81.7713C97.151 84.6315 97.9048 86.7676 98.6103 88.8098C98.6771 89.0034 98.7436 89.1961 98.8099 89.3885C99.4425 91.2239 100.064 93.0267 100.964 95.2775C101.058 95.5112 101.148 95.7437 101.238 95.9737C101.701 97.1632 102.138 98.2843 102.81 99.1353C103.199 99.6278 103.655 100.009 104.223 100.245C104.789 100.479 105.502 100.583 106.427 100.468L109.074 100.019C108.933 99.7911 108.827 99.5675 108.741 99.3863C108.713 99.3289 108.688 99.2757 108.664 99.228C108.658 99.2157 108.653 99.203 108.648 99.1902C108.405 98.5791 108.052 97.6719 107.611 96.5374C106.266 93.0751 104.099 87.4963 101.712 81.7599C98.5356 74.1247 95.0043 66.295 92.5344 62.8164C90.1083 59.3994 88.3775 57.6581 86.7086 55.9792L86.7075 55.9781C85.4579 54.721 83.3087 50.9821 84.1178 45.691C84.9002 40.5752 85.7475 36.0145 86.0781 34.3493C86.1535 33.728 86.1725 32.7869 85.9974 31.97C85.813 31.1095 85.4662 30.5992 84.9801 30.4769C84.7385 30.4161 84.5784 30.1867 84.6049 29.9389C84.6314 29.6911 84.8363 29.5007 85.0853 29.4923C87.558 29.4094 91.674 29.4841 96.012 29.9758C100.34 30.4665 104.939 31.3776 108.346 32.9908C108.444 33.0369 108.523 33.1133 108.574 33.2085C111.209 38.1782 117.045 51.9357 119.407 67.3809C120.882 77.0311 120.765 84.6111 119.647 90.1087C118.535 95.5772 116.407 99.1001 113.747 100.438C112.023 101.305 110.847 101.394 110.005 100.942C109.974 100.925 109.944 100.908 109.915 100.89L106.584 101.456C106.577 101.457 106.569 101.458 106.562 101.459C105.493 101.593 104.598 101.482 103.84 101.168C103.083 100.855 102.497 100.352 102.026 99.7553C101.251 98.775 100.75 97.4844 100.29 96.2984C100.205 96.0774 100.12 95.86 100.036 95.6489C99.126 93.3744 98.4971 91.5499 97.8647 89.715C97.7983 89.5224 97.7318 89.3297 97.6651 89.1363C96.9623 87.1017 96.2161 84.9878 95.0383 82.1552C94.07 79.8263 92.6341 78.05 90.8218 77.0153C89.017 75.9849 86.7916 75.6625 84.1804 76.3215C84.1404 76.3316 84.0993 76.3367 84.058 76.3367H43.8778C43.845 76.3367 43.8122 76.3335 43.7799 76.327C40.4463 75.6613 38.2334 76.2313 36.6955 77.1729C35.1393 78.1256 34.216 79.4911 33.5146 80.5495C33.3011 80.8717 32.9715 81.5836 32.5449 82.6108C32.1252 83.6214 31.6301 84.8902 31.0849 86.2916L30.9876 86.5417C29.9208 89.284 28.6749 92.4868 27.4552 95.1701C27.3091 95.4915 27.1697 95.8016 27.0355 96.1C26.3307 97.6677 25.7702 98.9143 25.1471 99.7879C24.7662 100.322 24.3414 100.749 23.8157 101.039C23.287 101.33 22.6915 101.463 22 101.463C21.9776 101.463 21.9552 101.462 21.933 101.459L18.0174 100.929C18.0099 100.934 18.0024 100.938 17.9949 100.942C17.1532 101.394 15.9771 101.305 14.2531 100.438C11.5931 99.1001 9.4646 95.5772 8.35275 90.1087C7.23499 84.6111 7.11774 77.0311 8.5935 67.3809C10.9555 51.9357 16.7914 38.1782 19.426 33.2085C19.4765 33.1133 19.5564 33.0369 19.6539 32.9908C23.0614 31.3776 27.6597 30.4665 31.988 29.9758ZM17.6386 99.9887C17.6302 99.9941 17.6219 99.9997 17.6138 100.006C17.5841 100.025 17.5533 100.044 17.5212 100.061C17.1196 100.277 16.3357 100.366 14.7025 99.5447C12.4623 98.4179 10.4258 95.2859 9.3327 89.9095C8.24547 84.5621 8.11775 77.107 9.582 67.5321C11.9009 52.3684 17.6033 38.8363 20.2318 33.8244C23.4746 32.3256 27.8706 31.449 32.1007 30.9695C35.6634 30.5656 39.0747 30.4468 41.5188 30.465C41.2712 30.8615 41.1183 31.3242 41.0248 31.7605C40.8176 32.7269 40.8455 33.7968 40.9317 34.4903C40.9332 34.5023 40.9351 34.5142 40.9375 34.5261C41.2628 36.1626 42.1109 40.7233 42.8937 45.8421C43.6525 50.8044 41.6204 54.2298 40.5833 55.2731C38.8991 56.9675 37.1236 58.7539 34.6502 62.2375C32.1022 65.8261 28.5285 73.7709 25.3645 81.3758C22.9725 87.1252 20.7955 92.7287 19.4512 96.1889C19.0174 97.3053 18.6704 98.1986 18.4307 98.8017C18.4039 98.8559 18.3778 98.9092 18.3522 98.9617C18.1408 99.3946 17.9611 99.7626 17.6386 99.9887ZM110.345 99.9771C110.387 100.008 110.432 100.036 110.479 100.061C110.88 100.277 111.664 100.366 113.298 99.5447C115.538 98.4179 117.574 95.2859 118.667 89.9095C119.755 84.5621 119.882 77.107 118.418 67.5321C116.099 52.3684 110.397 38.8363 107.768 33.8244C104.525 32.3256 100.129 31.449 95.8993 30.9695C92.3366 30.5656 88.9253 30.4468 86.4812 30.465C86.7288 30.8615 86.8817 31.3242 86.9752 31.7605C87.1824 32.7269 87.1544 33.7968 87.0683 34.4903C87.0676 34.4961 87.0667 34.5019 87.0658 34.5076C87.0648 34.5138 87.0637 34.52 87.0625 34.5261C86.7372 36.1626 85.8891 40.7233 85.1063 45.8421C84.3475 50.8044 86.3796 54.2298 87.4167 55.2731C89.1009 56.9675 90.8764 58.7539 93.3498 62.2375C95.8978 65.8261 99.4715 73.7709 102.635 81.3758C105.027 87.1252 107.204 92.7286 108.549 96.1888C108.983 97.3053 109.33 98.1986 109.569 98.8018C109.596 98.8559 109.622 98.9093 109.648 98.9617C109.848 99.3722 110.02 99.7243 110.312 99.9524C110.324 99.9602 110.335 99.9684 110.345 99.9771Z" style="--darkreader-inline-fill: #000000;" data-darkreader-inline-fill="" fill="white"/>
    <path fill-rule="evenodd" clip-rule="evenodd" d="M 95.5 39.963 C 95.5 38.03 97.067 36.463 99 36.463 C 100.933 36.463 102.5 38.03 102.5 39.963 C 102.5 41.896 100.933 43.463 99 43.463 C 97.067 43.463 95.5 41.896 95.5 39.963 Z" style="--darkreader-inline-fill: #e8e6e3;" data-darkreader-inline-fill="" id="triangle_button_ps5" fill="white"/>
    <path fill-rule="evenodd" clip-rule="evenodd" d="M 95.5 55.963 C 95.5 54.03 97.067 52.463 99 52.463 C 100.933 52.463 102.5 54.03 102.5 55.963 C 102.5 57.896 100.933 59.463 99 59.463 C 97.067 59.463 95.5 57.896 95.5 55.963 Z" style="--darkreader-inline-fill: #e8e6e3;" data-darkreader-inline-fill="" id="x_button_ps5" fill="white"/>
    <path fill-rule="evenodd" clip-rule="evenodd" d="M 87.5 47.963 C 87.5 46.03 89.067 44.463 91 44.463 C 92.933 44.463 94.5 46.03 94.5 47.963 C 94.5 49.896 92.933 51.463 91 51.463 C 89.067 51.463 87.5 49.896 87.5 47.963 Z" style="--darkreader-inline-fill: #e8e6e3;" data-darkreader-inline-fill="" id="square_button_ps5" fill="white"/>
    <path fill-rule="evenodd" clip-rule="evenodd" d="M 39.5 64.463 C 39.5 61.15 42.186 58.463 45.5 58.463 C 48.814 58.463 51.5 61.15 51.5 64.463 C 51.5 67.777 48.814 70.463 45.5 70.463 C 42.186 70.463 39.5 67.777 39.5 64.463 Z" style="--darkreader-inline-fill: #e8e6e3;" data-darkreader-inline-fill="" id="left_stick_ps5" fill="white"/>
    <path fill-rule="evenodd" clip-rule="evenodd" d="M 76.5 64.463 C 76.5 61.15 79.186 58.463 82.5 58.463 C 85.814 58.463 88.5 61.15 88.5 64.463 C 88.5 67.777 85.814 70.463 82.5 70.463 C 79.186 70.463 76.5 67.777 76.5 64.463 Z" style="--darkreader-inline-fill: #e8e6e3;" data-darkreader-inline-fill="" id="right_stick_ps5" fill="white"/>
    <path fill-rule="evenodd" clip-rule="evenodd" d="M 100.308 27.242 C 97.72 26.499 94.643 26.156 91.589 26.97 C 91.37 27.029 91.218 27.227 91.218 27.453 L 91.218 30.013 C 91.218 30.289 91.442 30.513 91.718 30.513 C 94.301 30.513 100.557 30.961 105.77 32.688 C 105.923 32.738 106.09 32.713 106.22 32.619 C 106.351 32.525 106.428 32.374 106.428 32.213 L 106.428 30.393 C 106.428 30.232 106.35 30.08 106.218 29.986 C 105.029 29.137 102.895 27.985 100.308 27.242 Z" style="--darkreader-inline-fill: #e8e6e3;" data-darkreader-inline-fill="" id="right_bumper_ps5" fill="white"/>
    <path fill-rule="evenodd" clip-rule="evenodd" d="M 27.337 27.242 C 29.926 26.499 33.003 26.156 36.057 26.97 C 36.276 27.029 36.428 27.227 36.428 27.453 L 36.428 30.013 C 36.428 30.289 36.204 30.513 35.928 30.513 C 33.345 30.513 27.088 30.961 21.875 32.688 C 21.723 32.738 21.555 32.713 21.425 32.619 C 21.295 32.525 21.218 32.374 21.218 32.213 L 21.218 30.393 C 21.218 30.232 21.296 30.08 21.427 29.986 C 22.616 29.137 24.75 27.985 27.337 27.242 Z" style="--darkreader-inline-fill: #e8e6e3;" data-darkreader-inline-fill="" id="left_bumper_ps5" fill="white"/>
    <path fill-rule="evenodd" clip-rule="evenodd" d="M95.7129 29.9703C91.3221 29.4838 87.156 29.41 84.6535 29.492C84.4038 29.5002 84.1985 29.6913 84.1726 29.9398C84.1466 30.1882 84.308 30.4177 84.5505 30.4773C85.0488 30.5998 85.3975 31.1067 85.5829 31.9523C85.7596 32.758 85.7404 33.6869 85.6643 34.3004C85.3295 35.9487 84.4718 40.461 83.6798 45.5225C82.8596 50.7642 85.0384 54.4674 86.3036 55.7113L86.3046 55.7123C87.9943 57.3736 89.7465 59.0965 92.2025 62.4772C94.7024 65.9183 98.277 73.6643 101.493 81.2191C103.909 86.8946 106.103 92.4141 107.465 95.8399C107.911 96.9626 108.268 97.8605 108.514 98.4653C108.519 98.4783 108.525 98.491 108.532 98.5035C108.556 98.5507 108.581 98.6034 108.609 98.6602C108.827 99.1101 109.174 99.8242 109.888 100.2C110.734 100.644 111.918 100.559 113.663 99.7011C116.353 98.3784 118.51 94.8921 119.636 89.4773C120.768 84.0353 120.887 76.5331 119.393 66.9835C117.001 51.6992 111.092 38.0855 108.425 33.1676C108.373 33.073 108.293 32.9974 108.195 32.9522C104.747 31.3569 100.094 30.4558 95.7129 29.9703ZM107.625 33.791C110.286 38.7497 116.058 52.1371 118.405 67.1381C119.887 76.6108 119.758 83.9851 118.657 89.2736C117.551 94.5893 115.492 97.6877 113.221 98.8037C111.567 99.6169 110.767 99.5316 110.354 99.3145C109.949 99.1016 109.75 98.7043 109.512 98.2275C109.486 98.1757 109.46 98.1228 109.433 98.0692C109.19 97.4726 108.839 96.589 108.4 95.4847C107.039 92.061 104.835 86.5164 102.413 80.8274C99.21 73.303 95.5916 65.4409 93.0115 61.8894C90.5073 58.4423 88.7097 56.6747 87.0047 54.9983C85.9549 53.966 83.9005 50.5805 84.6678 45.6771C85.4602 40.6125 86.3187 36.1001 86.648 34.4812C86.6505 34.469 86.6525 34.4568 86.6541 34.4445C86.7415 33.7571 86.7698 32.6966 86.5597 31.7381C86.4654 31.3083 86.312 30.8546 86.0659 30.465C88.541 30.447 91.9953 30.5645 95.6028 30.9642C99.8867 31.4389 104.34 32.3067 107.625 33.791Z" style="--darkreader-inline-fill: #000000;" data-darkreader-inline-fill="" fill="white"/>
    <path fill-rule="evenodd" clip-rule="evenodd" d="M32.2871 29.9703C36.6779 29.4838 40.844 29.41 43.3465 29.492C43.5962 29.5002 43.8015 29.6913 43.8274 29.9398C43.8534 30.1882 43.692 30.4177 43.4495 30.4773C42.9512 30.5998 42.6025 31.1067 42.4171 31.9523C42.2405 32.758 42.2596 33.6868 42.3357 34.3004C42.6705 35.9486 43.5282 40.4609 44.3202 45.5225C45.1404 50.7642 42.9616 54.4674 41.6964 55.7113L41.6955 55.7122C40.0058 57.3736 38.2535 59.0964 35.7975 62.4772C33.2976 65.9183 29.723 73.6643 26.507 81.2191C24.091 86.8946 21.8969 92.414 20.5351 95.8398C20.0888 96.9626 19.7318 97.8605 19.4858 98.4653C19.4805 98.4783 19.4747 98.491 19.4683 98.5035C19.4443 98.5507 19.4188 98.6034 19.3911 98.6602C19.1726 99.1101 18.8257 99.8242 18.1115 100.2C17.266 100.644 16.0821 100.559 14.3374 99.7011C11.6468 98.3784 9.49011 94.8921 8.36364 89.4773C7.23153 84.0353 7.113 76.5331 8.60723 66.9835C10.9988 51.6992 16.9077 38.0855 19.5753 33.1676C19.6266 33.073 19.7071 32.9974 19.8048 32.9522C23.2526 31.3569 27.9059 30.4558 32.2871 29.9703ZM20.3752 33.791C17.7144 38.7497 11.9424 52.1371 9.59521 67.1381C8.11301 76.6108 8.24249 83.9851 9.34268 89.2736C10.4485 94.5893 12.5084 97.6877 14.7786 98.8037C16.4328 99.6169 17.2332 99.5316 17.6462 99.3145C18.0512 99.1016 18.2496 98.7044 18.4878 98.2276C18.5138 98.1757 18.5402 98.1228 18.5673 98.0692C18.8099 97.4726 19.1611 96.589 19.6001 95.4847C20.9611 92.061 23.1652 86.5164 25.5869 80.8274C28.79 73.303 32.4084 65.4409 34.9885 61.8894C37.4927 58.4423 39.2903 56.6747 40.9953 54.9983C42.0451 53.966 44.0995 50.5806 43.3322 45.6771C42.5398 40.6125 41.6813 36.1001 41.352 34.4812C41.3495 34.469 41.3475 34.4568 41.3459 34.4445C41.2585 33.7571 41.2302 32.6966 41.4403 31.7381C41.5346 31.3083 41.688 30.8546 41.9341 30.465C39.459 30.447 36.0047 30.5645 32.3972 30.9642C28.1133 31.4389 23.6603 32.3067 20.3752 33.791Z" style="--darkreader-inline-fill: #000000;" data-darkreader-inline-fill="" fill="white"/>
    <path fill-rule="evenodd" clip-rule="evenodd" d="M 103.5 47.963 C 103.5 46.03 105.067 44.463 107 44.463 C 108.933 44.463 110.5 46.03 110.5 47.963 C 110.5 49.896 108.933 51.463 107 51.463 C 105.067 51.463 103.5 49.896 103.5 47.963 Z" style="--darkreader-inline-fill: #e8e6e3;" data-darkreader-inline-fill="" id="o_button_ps5" fill="white"/>
    <path fill-rule="evenodd" clip-rule="evenodd" d="M60.5 69.9632C60.5 69.6871 60.7239 69.4632 61 69.4632H67C67.2761 69.4632 67.5 69.6871 67.5 69.9632C67.5 70.2393 67.2761 70.4632 67 70.4632H61C60.7239 70.4632 60.5 70.2393 60.5 69.9632Z" style="--darkreader-inline-fill: #e8e6e3;" data-darkreader-inline-fill="" fill="white"/>
    <path fill-rule="evenodd" clip-rule="evenodd" d="M 27.906 51.399 C 28.498 50.767 29.502 50.767 30.094 51.399 L 32.094 53.533 C 32.355 53.811 32.5 54.178 32.5 54.559 L 32.5 57.963 C 32.5 58.792 31.828 59.463 31 59.463 L 27 59.463 C 26.172 59.463 25.5 58.792 25.5 57.963 L 25.5 54.559 C 25.5 54.178 25.645 53.811 25.906 53.533 L 27.906 51.399 Z" style="--darkreader-inline-fill: #e8e6e3;" data-darkreader-inline-fill="" id="dpad_down_ps5" fill="white"/>
    <path fill-rule="evenodd" clip-rule="evenodd" d="M 30.094 46.527 C 29.502 47.159 28.498 47.159 27.906 46.527 L 25.906 44.394 C 25.645 44.116 25.5 43.749 25.5 43.368 L 25.5 39.963 C 25.5 39.135 26.172 38.463 27 38.463 L 31 38.463 C 31.828 38.463 32.5 39.135 32.5 39.963 L 32.5 43.368 C 32.5 43.749 32.355 44.116 32.094 44.394 L 30.094 46.527 Z" style="--darkreader-inline-fill: #e8e6e3;" data-darkreader-inline-fill="" id="dpad_up_ps5" fill="white"/>
    <path fill-rule="evenodd" clip-rule="evenodd" d="M 26.564 47.869 C 27.196 48.462 27.196 49.465 26.564 50.058 L 24.431 52.058 C 24.152 52.318 23.786 52.463 23.405 52.463 L 20 52.463 C 19.172 52.463 18.5 51.792 18.5 50.963 L 18.5 46.963 C 18.5 46.135 19.172 45.463 20 45.463 L 23.405 45.463 C 23.786 45.463 24.152 45.608 24.431 45.869 L 26.564 47.869 Z" style="--darkreader-inline-fill: #e8e6e3;" data-darkreader-inline-fill="" id="dpad_left_ps5" fill="white"/>
    <path fill-rule="evenodd" clip-rule="evenodd" d="M 31.436 50.058 C 30.804 49.465 30.804 48.462 31.436 47.869 L 33.57 45.869 C 33.848 45.608 34.214 45.463 34.596 45.463 L 38 45.463 C 38.828 45.463 39.5 46.135 39.5 46.963 L 39.5 50.963 C 39.5 51.792 38.828 52.463 38 52.463 L 34.596 52.463 C 34.214 52.463 33.848 52.318 33.57 52.058 L 31.436 50.058 Z" style="--darkreader-inline-fill: #e8e6e3;" data-darkreader-inline-fill="" id="dpad_right_ps5" fill="white"/>
    <path fill-rule="evenodd" clip-rule="evenodd" d="M91.2425 32.9931C90.7067 32.8591 90.1638 33.1849 90.0299 33.7207L89.0299 37.7207C88.8959 38.2565 89.2217 38.7994 89.7575 38.9334C90.2933 39.0673 90.8362 38.7415 90.9702 38.2058L91.9702 34.2058C92.1041 33.67 91.7783 33.127 91.2425 32.9931Z" style="--darkreader-inline-fill: #e8e6e3;" data-darkreader-inline-fill="" id="pause_button_ps5" fill="white"/>
    <path fill-rule="evenodd" clip-rule="evenodd" d="M36.7575 32.9931C37.2933 32.8591 37.8362 33.1849 37.9701 33.7207L38.9701 37.7207C39.1041 38.2565 38.7783 38.7994 38.2425 38.9334C37.7067 39.0673 37.1638 38.7415 37.0298 38.2058L36.0298 34.2058C35.8959 33.67 36.2217 33.127 36.7575 32.9931Z" style="--darkreader-inline-fill: #e8e6e3;" data-darkreader-inline-fill="" id="share_button_ps5" fill="white"/>
    <path fill-rule="evenodd" clip-rule="evenodd" d="M59.5 57.9632C59.5 57.6871 59.7239 57.4632 60 57.4632H68C68.2761 57.4632 68.5 57.6871 68.5 57.9632C68.5 58.2394 68.2761 58.4632 68 58.4632H60C59.7239 58.4632 59.5 58.2394 59.5 57.9632Z" style="--darkreader-inline-fill: #e8e6e3;" data-darkreader-inline-fill="" fill="white"/>
    <path fill-rule="evenodd" clip-rule="evenodd" d="M57.5 55.9632C57.5 55.6871 57.7239 55.4632 58 55.4632H70C70.2761 55.4632 70.5 55.6871 70.5 55.9632C70.5 56.2394 70.2761 56.4632 70 56.4632H58C57.7239 56.4632 57.5 56.2394 57.5 55.9632Z" style="--darkreader-inline-fill: #e8e6e3;" data-darkreader-inline-fill="" fill="white"/>
    <title fill="white"/>
    <path d="M 30.94 9.25 L 23.069 9.25 C 23.069 9.25 22.71 9.25 22.499 9.553 C 22.287 9.858 22.203 10.318 22.203 10.318 L 21.846 13.658 C 21.846 13.658 21.648 15.513 22.039 17.214 C 22.434 18.919 26.338 24.498 27.306 25.075 C 28.271 25.652 29.318 25.652 29.318 25.652 L 31.65 25.652 C 31.65 25.652 32.094 25.652 32.356 25.14 C 32.62 24.628 32.489 24.019 32.489 24.019 L 31.438 19.111 C 31.438 19.111 31.266 18.293 31.222 17.434 C 31.178 16.582 31.268 15.733 31.268 15.733 L 31.805 10.703 C 31.805 10.703 31.867 10.13 31.605 9.69 C 31.342 9.25 30.94 9.25 30.94 9.25 Z" stroke="#000" style="fill-rule: nonzero; stroke-width: 0px; stroke-miterlimit: 1; paint-order: stroke;" id="left_trigger_ps5" fill="white"/>
    <path d="M 103.669 25.251 C 103.669 25.251 104.071 25.251 104.334 24.811 C 104.596 24.371 104.534 23.798 104.534 23.798 L 103.997 18.768 C 103.997 18.768 103.907 17.919 103.951 17.067 C 103.995 16.208 104.167 15.39 104.167 15.39 L 105.218 10.482 C 105.218 10.482 105.349 9.873 105.085 9.361 C 104.823 8.849 104.379 8.849 104.379 8.849 L 102.047 8.849 C 102.047 8.849 101 8.849 100.035 9.426 C 99.067 10.003 95.163 15.582 94.768 17.287 C 94.377 18.988 94.575 20.843 94.575 20.843 L 94.932 24.183 C 94.932 24.183 95.016 24.643 95.228 24.948 C 95.439 25.251 95.798 25.251 95.798 25.251 L 103.669 25.251 Z" stroke="#000" style="fill-rule: nonzero; stroke-width: 0px; stroke-miterlimit: 1; paint-order: stroke;" transform="matrix(-1, 0, 0, -1, 199.775361, 34.100002)" id="right_trigger_ps5" fill="white"/>
    <title/>
    <path style="fill: white; fill-opacity: 1; fill-rule: evenodd;" class="cls-2" id="home_button" d="M 68.219 66.222 C 68.049 66.432 67.634 66.581 67.634 66.581 C 67.634 66.581 64.543 67.67 64.543 67.67 C 64.543 67.67 64.543 66.867 64.543 66.867 C 64.543 66.867 66.818 66.072 66.818 66.072 C 67.076 65.982 67.115 65.853 66.906 65.786 C 66.696 65.718 66.317 65.738 66.058 65.829 C 66.058 65.829 64.543 66.352 64.543 66.352 C 64.543 66.352 64.543 65.519 64.543 65.519 C 64.543 65.519 64.63 65.49 64.63 65.49 C 64.63 65.49 65.068 65.338 65.684 65.271 C 66.3 65.204 67.054 65.28 67.646 65.5 C 68.313 65.706 68.388 66.012 68.219 66.222 Z M 64.837 64.854 C 64.837 64.854 64.837 62.8 64.837 62.8 C 64.837 62.558 64.792 62.337 64.561 62.274 C 64.385 62.218 64.274 62.379 64.274 62.62 C 64.274 62.62 64.274 67.764 64.274 67.764 C 64.274 67.764 62.86 67.324 62.86 67.324 C 62.86 67.324 62.86 61.191 62.86 61.191 C 63.462 61.3 64.337 61.558 64.808 61.715 C 66.006 62.118 66.412 62.62 66.412 63.751 C 66.412 64.854 65.719 65.272 64.837 64.854 Z M 60.265 66.783 C 59.581 66.594 59.466 66.199 59.779 65.973 C 60.068 65.762 60.558 65.605 60.558 65.605 C 60.558 65.605 62.586 64.898 62.586 64.898 C 62.586 64.898 62.586 65.704 62.586 65.704 C 62.586 65.704 61.127 66.216 61.127 66.216 C 60.868 66.307 60.83 66.435 61.038 66.503 C 61.248 66.57 61.627 66.551 61.886 66.46 C 61.886 66.46 62.586 66.211 62.586 66.211 C 62.586 66.211 62.586 66.933 62.586 66.933 C 62.541 66.94 62.492 66.947 62.446 66.955 C 61.746 67.068 61 67.02 60.265 66.783 Z M 67.769 67.102 C 67.857 67.102 67.94 67.136 68.002 67.198 C 68.065 67.26 68.1 67.341 68.1 67.428 C 68.1 67.515 68.065 67.597 68.002 67.657 C 67.94 67.719 67.857 67.753 67.769 67.753 C 67.68 67.753 67.597 67.719 67.534 67.657 C 67.472 67.597 67.437 67.515 67.437 67.428 C 67.437 67.248 67.586 67.102 67.769 67.102 Z M 67.493 67.428 C 67.493 67.5 67.522 67.567 67.573 67.619 C 67.625 67.67 67.695 67.698 67.769 67.698 C 67.92 67.698 68.043 67.576 68.043 67.428 C 68.043 67.355 68.015 67.288 67.963 67.237 C 67.912 67.186 67.842 67.157 67.769 67.157 C 67.695 67.157 67.625 67.186 67.573 67.237 C 67.522 67.288 67.493 67.355 67.493 67.428 Z M 67.868 67.253 C 67.904 67.269 67.923 67.299 67.923 67.342 C 67.923 67.364 67.918 67.382 67.909 67.397 C 67.901 67.407 67.892 67.416 67.881 67.423 C 67.889 67.428 67.897 67.434 67.903 67.441 C 67.911 67.451 67.915 67.467 67.916 67.489 C 67.916 67.489 67.917 67.535 67.917 67.535 C 67.918 67.547 67.919 67.557 67.921 67.563 C 67.923 67.571 67.927 67.576 67.931 67.579 C 67.931 67.579 67.937 67.581 67.937 67.581 C 67.937 67.581 67.937 67.585 67.937 67.585 C 67.937 67.585 67.937 67.594 67.937 67.594 C 67.937 67.594 67.937 67.602 67.937 67.602 C 67.937 67.602 67.928 67.602 67.928 67.602 C 67.928 67.602 67.87 67.602 67.87 67.602 C 67.87 67.602 67.865 67.602 67.865 67.602 C 67.865 67.602 67.862 67.598 67.862 67.598 C 67.861 67.594 67.859 67.59 67.858 67.583 C 67.857 67.579 67.856 67.57 67.855 67.555 C 67.855 67.555 67.852 67.498 67.852 67.498 C 67.851 67.478 67.845 67.465 67.831 67.459 C 67.824 67.455 67.81 67.454 67.792 67.454 C 67.792 67.454 67.692 67.454 67.692 67.454 C 67.692 67.454 67.692 67.594 67.692 67.594 C 67.692 67.594 67.692 67.602 67.692 67.602 C 67.692 67.602 67.684 67.602 67.684 67.602 C 67.684 67.602 67.636 67.602 67.636 67.602 C 67.636 67.602 67.628 67.602 67.628 67.602 C 67.628 67.602 67.628 67.594 67.628 67.594 C 67.628 67.594 67.628 67.248 67.628 67.248 C 67.628 67.248 67.628 67.241 67.628 67.241 C 67.628 67.241 67.636 67.241 67.636 67.241 C 67.636 67.241 67.799 67.241 67.799 67.241 C 67.827 67.241 67.851 67.244 67.868 67.253 Z M 67.692 67.398 C 67.692 67.398 67.794 67.398 67.794 67.398 C 67.814 67.398 67.831 67.394 67.842 67.388 C 67.853 67.38 67.858 67.366 67.858 67.346 C 67.858 67.325 67.851 67.31 67.836 67.302 C 67.827 67.299 67.815 67.297 67.8 67.297 C 67.8 67.297 67.692 67.297 67.692 67.297 C 67.692 67.297 67.692 67.398 67.692 67.398 Z"/>
  </g>
</svg>